<?xml version="1.0" encoding="utf-8"?>
<!-- Generator: Adobe Illustrator 25.2.3, SVG Export Plug-In . SVG Version: 6.00 Build 0)  -->
<svg version="1.1" id="Layer_1" xmlns="http://www.w3.org/2000/svg" xmlns:xlink="http://www.w3.org/1999/xlink" x="0px" y="0px"
	 viewBox="0 0 280 16.5" style="enable-background:new 0 0 280 16.5;" xml:space="preserve">
<style type="text/css">
	.st0{fill:#FFFFFF;}
</style>
<g>
	<path class="st0" d="M1.3,13.7c-0.9-0.8-1.3-2-1.3-3.6V7.4c0-1.6,0.4-2.8,1.3-3.6c0.9-0.8,2.2-1.2,4-1.2c1.2,0,2.2,0.2,3,0.5
		C9,3.5,9.6,4,10,4.6s0.5,1.3,0.5,2.1c0,0.2,0,0.4,0,0.6c0,0.2,0,0.4-0.1,0.5L6.8,7.9C6.8,7.6,6.9,7.3,6.9,7c0-0.3-0.1-0.6-0.2-0.8
		C6.6,6,6.4,5.9,6.2,5.8C6,5.7,5.7,5.7,5.3,5.7c-0.6,0-1,0.1-1.2,0.4C3.8,6.3,3.7,6.7,3.7,7.3v2.8c0,0.4,0.1,0.8,0.2,1
		c0.1,0.3,0.3,0.5,0.5,0.6c0.2,0.1,0.5,0.2,0.9,0.2c0.5,0,0.9-0.1,1.2-0.4c0.3-0.2,0.4-0.6,0.4-1.1V9.7h3.7v0.7
		c0,1.5-0.4,2.6-1.3,3.4c-0.9,0.8-2.2,1.2-3.9,1.2S2.2,14.5,1.3,13.7z"/>
	<path class="st0" d="M14.2,11.5l-3.6-8.7h3.9c0.1,0.4,0.3,0.8,0.4,1.3C15,4.5,15.2,5,15.3,5.4c0.4,1.2,0.6,2.1,0.8,2.7h0.3
		c0.1-0.6,0.3-1.5,0.6-2.7c0.1-0.4,0.2-0.9,0.3-1.4c0.1-0.5,0.2-0.9,0.3-1.3h3.8l-3.6,8.7v3.2h-3.6V11.5z"/>
	<path class="st0" d="M29.4,14.7v-2.1c0-1,0-2.1,0.1-3.1c0.1-1,0.1-2.2,0.2-3.5l-0.3,0c-0.1,0.8-0.3,1.5-0.4,2.3
		c-0.2,0.8-0.3,1.6-0.5,2.3c-0.2,0.8-0.3,1.6-0.5,2.2c-0.1,0.6-0.2,1.3-0.3,1.9h-5.4v-12h3.5v2.1c0,1,0,2.1-0.1,3.1
		c-0.1,1-0.1,2.2-0.2,3.5l0.3,0c0.1-0.6,0.2-1.3,0.3-2c0.1-0.7,0.3-1.4,0.4-2c0.2-1.1,0.4-1.9,0.5-2.6c0.1-0.7,0.2-1.4,0.3-2.1h5.6
		v12H29.4z M25.4,1.9c-0.5-0.1-0.9-0.4-1.1-0.7c-0.2-0.3-0.3-0.7-0.3-1.2H27c0,0.3,0.1,0.5,0.2,0.6c0.1,0.1,0.3,0.2,0.5,0.2
		c0.2,0,0.4-0.1,0.5-0.2c0.1-0.1,0.2-0.3,0.2-0.6h2.8c0,0.5-0.1,0.9-0.3,1.2c-0.2,0.3-0.5,0.5-1.1,0.7c-0.5,0.1-1.2,0.2-2.1,0.2
		C26.7,2.1,26,2,25.4,1.9z"/>
	<path class="st0" d="M34.4,2.8H38v12h-3.6V2.8z"/>
	<path class="st0" d="M39.6,2.8h3.6v4.3h0.3l0.9-2.2c0.2-0.6,0.5-1.1,0.8-1.4c0.3-0.3,0.7-0.6,1.1-0.7c0.4-0.1,0.9-0.2,1.5-0.2
		c0.4,0,0.8,0,1.3,0.1V6c-0.3,0-0.6,0-0.7,0c-0.3,0-0.6,0-0.7,0.1c-0.2,0.1-0.4,0.2-0.5,0.3C47,6.5,46.9,6.7,46.8,7l-0.5,1.3
		l3.1,6.5h-4l-1.9-4.7h-0.3v4.7h-3.6V2.8z"/>
	<path class="st0" d="M53.2,6.1H50V2.8h10v3.3h-3.2v8.6h-3.6V6.1z"/>
	<path class="st0" d="M61.1,2.8h3.6v12h-3.6V2.8z"/>
	<path class="st0" d="M72.5,6.1h-3.2V2.8h10v3.3h-3.2v8.6h-3.6V6.1z"/>
	<path class="st0" d="M82,2.8H87l3.6,12h-3.8l-0.2-0.9c-0.1-0.3-0.2-0.6-0.4-0.8s-0.4-0.4-0.7-0.5c-0.3-0.1-0.6-0.2-1-0.2
		c-0.4,0-0.8,0-1,0.1c-0.3,0.1-0.5,0.3-0.7,0.5c-0.2,0.2-0.3,0.5-0.4,0.8l-0.2,0.9h-3.8L82,2.8z M84.1,10c0.2-0.2,0.5-0.2,0.9-0.2
		c0.1,0,0.3,0,0.5,0c-0.2-0.8-0.5-2-0.8-3.6h-0.3C84.2,7,84,7.7,83.9,8.3s-0.2,1-0.3,1.3c-0.1,0.4-0.2,0.7-0.4,1l0.3,0.1
		C83.7,10.4,83.9,10.1,84.1,10z"/>
	<path class="st0" d="M91,8.2h0.8V2.8h7.9v3.3h-4.3v2.2h1.3v2.3h-1.3v4.1h-3.6v-4H91V8.2z"/>
	<path class="st0" d="M102.5,2.8h4.9l3.6,12h-3.8l-0.2-0.9c-0.1-0.3-0.2-0.6-0.4-0.8s-0.4-0.4-0.7-0.5c-0.3-0.1-0.6-0.2-1-0.2
		s-0.8,0-1,0.1c-0.3,0.1-0.5,0.3-0.7,0.5c-0.2,0.2-0.3,0.5-0.4,0.8l-0.2,0.9h-3.8L102.5,2.8z M104.6,10c0.2-0.2,0.5-0.2,0.9-0.2
		c0.1,0,0.3,0,0.5,0c-0.2-0.8-0.5-2-0.8-3.6h-0.3c-0.2,0.9-0.3,1.6-0.5,2.2s-0.2,1-0.3,1.3c-0.1,0.4-0.2,0.7-0.4,1l0.3,0.1
		C104.1,10.4,104.4,10.1,104.6,10z"/>
	<path class="st0" d="M112.1,2.8h5.9c0.1,0.8,0.2,1.6,0.2,2.3c0.1,0.7,0.2,1.6,0.4,2.7c0.2,1.2,0.3,2.3,0.4,3.4h0.3
		c0.1-1.2,0.3-2.2,0.4-3.3c0.1-0.8,0.2-1.7,0.3-2.5c0.1-0.9,0.2-1.7,0.3-2.5h5.9v12h-3.5v-2.1c0-2.1,0.1-4.3,0.2-6.6l-0.3,0
		c-0.1,0.7-0.2,1.4-0.3,2.2c-0.1,0.8-0.2,1.5-0.4,2.1c-0.1,0.8-0.3,1.5-0.4,2.3c-0.1,0.8-0.2,1.5-0.3,2.1h-4.1
		c-0.1-0.6-0.2-1.3-0.3-2.1c-0.1-0.8-0.3-1.5-0.4-2.3c-0.2-1.5-0.5-2.9-0.7-4.4l-0.3,0c0.1,2.3,0.2,4.5,0.2,6.6v2.1h-3.5V2.8z"/>
	<path class="st0" d="M127.4,11.7h0.8c0.2,0,0.3,0,0.4-0.1c0.1-0.1,0.2-0.2,0.2-0.3c0-0.1,0.1-0.4,0.1-0.6l0.1-7.8h9.5v8.9h1.2v4.9
		h-4v-1.8h-4.4v1.8h-4V11.7z M134.9,11.7V5.9h-2.4l-0.1,4c0,0.3,0,0.6-0.1,0.8c-0.1,0.2-0.2,0.4-0.3,0.5c-0.1,0.1-0.3,0.2-0.5,0.2
		v0.3H134.9z"/>
	<path class="st0" d="M144,2.8h4.9l3.6,12h-3.8l-0.2-0.9c-0.1-0.3-0.2-0.6-0.4-0.8c-0.2-0.2-0.4-0.4-0.7-0.5c-0.3-0.1-0.6-0.2-1-0.2
		s-0.8,0-1,0.1c-0.3,0.1-0.5,0.3-0.7,0.5c-0.2,0.2-0.3,0.5-0.4,0.8l-0.2,0.9h-3.8L144,2.8z M146.1,10c0.2-0.2,0.5-0.2,0.9-0.2
		c0.1,0,0.3,0,0.5,0c-0.2-0.8-0.5-2-0.8-3.6h-0.3c-0.2,0.9-0.3,1.6-0.5,2.2c-0.1,0.6-0.2,1-0.3,1.3c-0.1,0.4-0.2,0.7-0.4,1l0.3,0.1
		C145.6,10.4,145.9,10.1,146.1,10z"/>
	<path class="st0" d="M153.5,2.8h6.1c0.8,0,1.5,0.1,2,0.4c0.5,0.3,0.9,0.7,1.2,1.2c0.3,0.5,0.4,1.2,0.4,2.1v1.3
		c0,0.9-0.1,1.6-0.4,2.1c-0.2,0.5-0.6,0.9-1.1,1.2c-0.5,0.3-1.1,0.4-1.9,0.4h-0.1c-0.5,0-0.9-0.1-1.3-0.2c-0.3-0.1-0.6-0.2-0.8-0.4
		c-0.2-0.2-0.4-0.4-0.5-0.7l-0.3,0.1c0.1,0.4,0.1,0.6,0.1,0.9c0,0.2,0,0.6,0,1v2.5h-3.6V2.8z M157.3,8.2c0.1,0.2,0.2,0.3,0.4,0.4
		c0.2,0.1,0.4,0.1,0.8,0.1c0.4,0,0.7,0,0.9-0.1c0.2-0.1,0.3-0.2,0.4-0.4c0.1-0.2,0.1-0.5,0.1-0.8V7.1c0-0.3,0-0.6-0.1-0.8
		c-0.1-0.2-0.2-0.3-0.4-0.4c-0.2-0.1-0.5-0.1-0.9-0.1h-1.3v1.8C157.1,7.8,157.2,8,157.3,8.2z"/>
	<path class="st0" d="M163.6,11.7h0.8c0.2,0,0.3,0,0.4-0.1c0.1-0.1,0.2-0.2,0.2-0.3c0-0.1,0.1-0.4,0.1-0.6l0.1-7.8h9.5v8.9h1.2v4.9
		h-4v-1.8h-4.4v1.8h-4V11.7z M171.1,11.7V5.9h-2.4l-0.1,4c0,0.3,0,0.6-0.1,0.8c-0.1,0.2-0.2,0.4-0.3,0.5c-0.1,0.1-0.3,0.2-0.5,0.2
		v0.3H171.1z"/>
	<path class="st0" d="M177.1,2.8h3.6v4.1h2.3c0.9,0,1.6,0.1,2.2,0.4c0.6,0.2,1,0.6,1.3,1.2c0.3,0.5,0.4,1.3,0.4,2.2V11
		c0,0.9-0.1,1.6-0.4,2.2c-0.3,0.5-0.7,0.9-1.3,1.2c-0.6,0.2-1.3,0.4-2.2,0.4h-5.9V2.8z M182.9,11.6c0.2-0.1,0.3-0.2,0.3-0.3
		c0.1-0.1,0.1-0.3,0.1-0.5v-0.4c0-0.3-0.1-0.6-0.2-0.7c-0.2-0.1-0.4-0.2-0.8-0.2h-1.6v2.2h1.6C182.6,11.7,182.8,11.6,182.9,11.6z
		 M188.2,2.8h3.6v12h-3.6V2.8z"/>
	<path class="st0" d="M201.4,14.7h-1.3v-3.5c0-0.3-0.1-0.6-0.2-0.8c-0.1-0.2-0.3-0.4-0.5-0.5c-0.2-0.1-0.5-0.2-0.9-0.2
		s-0.7,0.1-0.9,0.2c-0.2,0.1-0.4,0.3-0.5,0.5c-0.1,0.2-0.2,0.5-0.2,0.8v3.5h-3.6v-12h3.6v3.8c0,0.3,0,0.6-0.1,0.9
		c0,0.3-0.1,0.5-0.2,0.8l0.3,0.1c0.3-0.5,0.6-0.8,1-1c0.4-0.2,0.9-0.4,1.5-0.4c0.3,0,0.5,0,0.8,0.1V2.8h3.6v8.9h1.2v4.9h-3.5V14.7z"
		/>
	<path class="st0" d="M212.4,6.1h-3.2V2.8h10v3.3h-3.2v8.6h-3.6V6.1z"/>
	<path class="st0" d="M221.9,2.8h4.9l3.6,12h-3.8l-0.2-0.9c-0.1-0.3-0.2-0.6-0.4-0.8c-0.2-0.2-0.4-0.4-0.7-0.5
		c-0.3-0.1-0.6-0.2-1-0.2c-0.4,0-0.8,0-1,0.1c-0.3,0.1-0.5,0.3-0.7,0.5c-0.2,0.2-0.3,0.5-0.4,0.8l-0.2,0.9h-3.8L221.9,2.8z M224,10
		c0.2-0.2,0.5-0.2,0.9-0.2c0.1,0,0.3,0,0.5,0c-0.2-0.8-0.5-2-0.8-3.6h-0.3c-0.2,0.9-0.3,1.6-0.5,2.2c-0.1,0.6-0.2,1-0.3,1.3
		c-0.1,0.4-0.2,0.7-0.4,1l0.3,0.1C223.5,10.4,223.8,10.1,224,10z"/>
	<path class="st0" d="M231.5,2.8h6.1c0.8,0,1.5,0.1,2,0.4c0.5,0.3,0.9,0.7,1.2,1.2s0.4,1.2,0.4,2.1v1.3c0,0.9-0.1,1.6-0.4,2.1
		c-0.2,0.5-0.6,0.9-1.1,1.2c-0.5,0.3-1.1,0.4-1.9,0.4h-0.1c-0.5,0-0.9-0.1-1.3-0.2s-0.6-0.2-0.8-0.4c-0.2-0.2-0.4-0.4-0.5-0.7
		l-0.3,0.1c0.1,0.4,0.1,0.6,0.1,0.9c0,0.2,0,0.6,0,1v2.5h-3.6V2.8z M235.2,8.2c0.1,0.2,0.2,0.3,0.4,0.4c0.2,0.1,0.4,0.1,0.8,0.1
		c0.4,0,0.7,0,0.9-0.1c0.2-0.1,0.3-0.2,0.4-0.4c0.1-0.2,0.1-0.5,0.1-0.8V7.1c0-0.3,0-0.6-0.1-0.8c-0.1-0.2-0.2-0.3-0.4-0.4
		c-0.2-0.1-0.5-0.1-0.9-0.1H235v1.8C235,7.8,235.1,8,235.2,8.2z"/>
	<path class="st0" d="M249.4,14.7v-2.1c0-1,0-2.1,0.1-3.1c0.1-1,0.1-2.2,0.2-3.5l-0.3,0c-0.1,0.8-0.3,1.5-0.4,2.3
		c-0.2,0.8-0.3,1.6-0.5,2.3c-0.2,0.8-0.3,1.6-0.5,2.2c-0.1,0.6-0.2,1.3-0.3,1.9h-5.4v-12h3.5v2.1c0,1,0,2.1-0.1,3.1
		c-0.1,1-0.1,2.2-0.2,3.5l0.3,0c0.1-0.6,0.2-1.3,0.3-2c0.1-0.7,0.3-1.4,0.4-2c0.2-1.1,0.4-1.9,0.5-2.6c0.1-0.7,0.2-1.4,0.3-2.1h5.6
		v12H249.4z"/>
	<path class="st0" d="M256.6,8.9L254,2.8h3.8l1.6,4.4h0.3l0.8-4.4h3.7l-2.6,5.6l2.7,6.4h-3.9l-1.7-4.5h-0.3l-0.9,4.5h-3.7L256.6,8.9
		z"/>
	<path class="st0" d="M265.4,2.8h3.6v4.1h2.3c0.9,0,1.6,0.1,2.2,0.4c0.6,0.2,1,0.6,1.3,1.2c0.3,0.5,0.4,1.3,0.4,2.2V11
		c0,0.9-0.1,1.6-0.4,2.2c-0.3,0.5-0.7,0.9-1.3,1.2c-0.6,0.2-1.3,0.4-2.2,0.4h-5.9V2.8z M271.2,11.6c0.2-0.1,0.3-0.2,0.3-0.3
		c0.1-0.1,0.1-0.3,0.1-0.5v-0.4c0-0.3-0.1-0.6-0.2-0.7c-0.2-0.1-0.4-0.2-0.8-0.2H269v2.2h1.6C270.8,11.7,271,11.6,271.2,11.6z
		 M276.4,2.8h3.6v12h-3.6V2.8z"/>
</g>
</svg>
