<svg version="1.1" id="Layer_1" xmlns="http://www.w3.org/2000/svg" x="0" y="0" viewBox="0 0 281 48.4" style="enable-background:new 0 0 281 48.4" xml:space="preserve"><style>.st0{fill:#fff}</style><path class="st0" d="M0 .8h14v14.7c0 1.3-.1 2.5-.3 3.4-.2 1-.5 2.1-.8 3.2l1 .4c1-1.8 2.3-3.1 3.9-4.1 1.5-.9 3.5-1.4 5.7-1.4 1 0 2 .1 2.9.2V.8h14v46.8h-14V34c0-1.3-.2-2.3-.6-3.1-.4-.8-1.1-1.4-2-1.9-.9-.4-2.1-.6-3.6-.6s-2.7.2-3.6.6c-.9.4-1.6 1-2 1.9-.4.8-.6 1.8-.6 3.1v13.6H0V.8zM58.6.8H78l14 46.8H77.2l-.9-3.6c-.3-1.4-.8-2.5-1.5-3.3-.6-.8-1.5-1.4-2.6-1.8-1.1-.4-2.4-.6-4-.6s-3 .2-4 .6c-1.1.4-1.9 1-2.6 1.8-.6.8-1.1 1.9-1.5 3.3l-.9 3.6H44.5L58.6.8zm8.2 28.1c.9-.6 2-.9 3.3-.9.5 0 1.1.1 1.9.2-.8-3.2-1.9-8-3.1-14.3h-1.2c-.7 3.3-1.3 6.2-1.8 8.4-.5 2.3-1 4-1.4 5.2-.4 1.4-.9 2.7-1.5 3.9l1 .4c.9-1.4 1.8-2.3 2.8-2.9zM101 47.4c-2.1-.6-3.7-1.6-4.7-2.8-1-1.2-1.6-2.6-1.6-4.3 0-.8.1-1.6.3-2.4l12.9-.5c-.1.4-.1.8-.1 1.2 0 .8.2 1.4.5 1.7.3.3.9.5 1.6.5.5 0 .9-.1 1.2-.3.3-.2.6-.4.8-.8.2-.4.4-.9.6-1.6l.5-2.4h-1c-2.8 0-4.9-.3-6.5-.9-1.6-.6-2.8-1.5-3.6-2.8-.9-1.3-1.6-3.2-2.4-5.6L94.2.8h15.2c.6 2.7 1.4 7 2.4 12.9.7 4 1.5 8.3 2.4 12.9h1.1c.6-2.7 1.4-7 2.4-12.9.7-4 1.5-8.3 2.4-12.9h14.8l-8.2 35.6c-.8 2.8-1.9 5-3.2 6.8-1.4 1.7-3.3 3-5.6 3.9-2.4.9-5.4 1.3-9.1 1.3-3 0-5.6-.4-7.8-1zM138.8.8h23.9c3.2 0 5.8.5 7.9 1.5 2.1 1 3.6 2.6 4.6 4.7 1 2.1 1.5 4.9 1.5 8.3v5.1c0 3.3-.5 6.1-1.5 8.2-1 2.1-2.4 3.7-4.4 4.7-2 1-4.4 1.5-7.4 1.5h-.2c-2 0-3.7-.2-5-.6-1.3-.4-2.4-1-3.1-1.7-.8-.7-1.4-1.6-2-2.6l-1 .3c.3 1.4.5 2.5.6 3.4.1.9.1 2.2.1 4.1v9.9h-14V.8zM153.3 22c.3.6.8 1.1 1.6 1.4s1.7.5 3 .5c1.5 0 2.6-.2 3.4-.6.8-.4 1.3-.9 1.6-1.7.3-.8.4-1.9.4-3.2V18c0-1.3-.2-2.4-.5-3.2-.3-.8-.9-1.3-1.7-1.7-.8-.4-1.9-.6-3.4-.6h-4.9v7c0 1 .2 1.8.5 2.5zM181.3.8h14v16.1h9.2c3.4 0 6.3.5 8.5 1.4 2.2 1 3.9 2.5 5 4.7s1.7 5 1.7 8.5v1.6c0 3.5-.6 6.4-1.7 8.5-1.1 2.1-2.8 3.6-5 4.6-2.2.9-5.1 1.4-8.5 1.4h-23.3V.8zM204 35.2c.6-.2 1.1-.6 1.4-1.2.3-.5.4-1.2.4-2.1v-1.4c0-1.3-.3-2.2-1-2.8-.6-.6-1.7-.9-3.1-.9h-6.3v8.7h6.1c1 0 1.9-.1 2.5-.3zM224.6.8h14v46.8h-14V.8zM251.4 46.8c-2.8-1-4.8-2.5-5.9-4.3-1.2-1.9-1.7-4.2-1.7-7 0-1.6.1-3.3.4-5l13-.5c-.2.9-.3 1.7-.3 2.4 0 1.1.2 2 .5 2.7.3.7.9 1.2 1.7 1.5.8.3 1.8.5 3.2.5 1.3 0 2.3-.2 3.1-.5.7-.3 1.3-.8 1.6-1.5.3-.7.5-1.6.5-2.7v-.6c0-1.2-.2-2.1-.5-2.8-.3-.7-.9-1.1-1.7-1.4-.8-.3-1.9-.4-3.4-.4h-3.5v-6.9h3.7c1.4 0 2.4-.1 3.1-.4.7-.3 1.2-.8 1.5-1.4.3-.6.5-1.5.5-2.7v-.3c0-.9-.1-1.6-.4-2.2-.3-.6-.7-1-1.4-1.3-.7-.3-1.7-.4-3.1-.4-1.2 0-2.2.1-3 .4-.8.3-1.4.7-1.8 1.3-.4.6-.6 1.5-.6 2.5 0 .6.1 1.2.2 1.9l-12.9.3c-.4-1.8-.5-3.6-.5-5.4 0-2.7.6-5 1.7-6.8 1.1-1.8 3.1-3.3 5.8-4.2 2.7-1 6.4-1.5 11.1-1.5 5.9 0 10.4 1 13.5 3 3.1 2 4.6 5.3 4.6 9.8v.5c0 1.9-.3 3.5-.8 4.8s-1.3 2.4-2.4 3.2c-1.1.8-2.5 1.5-4.2 2.1v1.2c1.8.4 3.3.9 4.4 1.7 1.2.8 2.1 1.9 2.7 3.2.6 1.4.9 3.1.9 5.2V36c0 3.2-.7 5.7-2.2 7.5-1.5 1.8-3.6 3.1-6.2 3.8-2.7.7-5.9 1.1-9.8 1.1-4.8 0-8.6-.6-11.4-1.6z"/></svg>