<svg version="1.1" id="Layer_1" xmlns="http://www.w3.org/2000/svg" x="0" y="0" viewBox="0 0 300 142" style="enable-background:new 0 0 300 142" xml:space="preserve"><style>.st0,.st1,.st3{fill-rule:evenodd;clip-rule:evenodd;fill:#591c07}.st1,.st3{fill:#ecab00}.st3{fill:#ee3437}</style><path class="st0" d="M250.6 34.9c-.9.4-1.6.9-1.9 1.5l-3.5 6.5.7.7 4.7-8.7zm-82.1-20.4c-3.7 2.8-5.5 7.6-5 12.4.1.6.5 4.7 2.6 7.7.2.3.8 1.2 1.6 2.2.4.5.8 1 1.3 1.4h.8c1.9 0 3.7.6 5.1 1.7.1-.1.2-.2.2-.3.6-.6 1.3-2.1 2.1-3-1.9-1.2-3.5-2.8-4.5-4.8-.3-.3-.5-.6-.8-.9-.8-1-1.4-2-1.6-2.2-2.1-3-2.6-7.2-2.6-7.7-.3-2.2 0-4.4.8-6.5zm-13.9 30.6c-2.2.4-3.8 2.1-4.1 4.3l-1.3 12.8 3.1 4.8 2.3-21.9zm-40.4 5.6c-.1.1-.2.1-.3.2-1.2.7-2.3 1.8-3 3.2-.8 1.3-1 3.1-1.1 4.5l-.8 9.3 3.2 5.5 1.8-20.6c0-.6.1-1.4.2-2.1zM4.3 40.2c-.7.4-1.4.8-2 1.4C.8 43.1 0 45.2 0 47.3c0 .8.1 1.6.3 2.4l3.3 11.8c.6 2.3 3 3.2 5.4 2.9L32.5 62l20 76.4c.6 2.2 2.5 2.9 4.7 2.9.3 0 .5 0 .8-.1l19-3.1c2-.3 4.3-.5 5.8-2 1.1-1.2 1.7-2.8 1.9-4.4-1.1.4-2.4.5-3.5.7l-19 3.1c-.3 0-.5.1-.8.1-2.2 0-4.1-.8-4.7-2.9l-20-76.4-23.5 2.4c-2.4.2-4.8-.6-5.4-2.9L4.5 43.9c-.2-.8-.3-1.6-.3-2.4 0-.4 0-.9.1-1.3zm78 57-5.2-19.9c3 4.9 6.8 9.7 10.2 15.3l17.2 27.9c1.4 2.3 3.2 3.8 5.4 4.7 1.9.8 3.9 1.1 5.8 1.1 1.7 0 3.4-.2 5.3-.4 1.7-.2 3-.3 4.3-.6.9-.2 1.8-.5 2.7-1-.5 3-1.8 4.2-3.8 5.5-1.1.8-2.1 1.1-3.1 1.3-1.3.3-2.6.5-4.3.6-1.9.2-3.6.4-5.3.4-2 0-4-.3-5.8-1.1-2.2-.9-4-2.4-5.4-4.7L83.1 98.4c-.3-.3-.5-.8-.8-1.2zM133 109l7.3 12.4v.1c1.2 1.9 2.9 3.3 4.9 4.1 1.9.8 3.9 1.1 5.8 1.1 1.6 0 2.8-.1 4.4-.3 3.2-.6 5.4-1.1 7.8-2.6 1.2-.8 2.4-1.8 3.3-3.1.5-.8.9-1.8 1.2-2.8-.1.1-.2.1-.2.2-2.5 1.5-4.6 2.1-7.8 2.6-1.6.3-2.9.3-4.4.3-1.9 0-3.9-.3-5.8-1.1s-3.7-2.3-4.9-4.1v-.1l-10.8-18.2-.8 11.5zm42.1-30 9.8 36.6c.6 2.2 2.5 3.5 4.7 3.5.3 0 1.2 0 1.4-.1l17.7-2.9c1.8-.3 3-.7 4.8-2.1.9-.7 1.5-1.6 1.7-1.9 1.4 1 2.7 1.6 4.3 1.6l.8.1h1.5c.5 0 1.4-.1 2.5-.3 3.4-.5 8.5-1.4 8.7-1.5 1.6-.4 3.2-1.1 4-2.6l1.5-2.7.7-1.2c-.6.3-1.3.5-1.9.7-.2 0-5.3 1-8.7 1.5-1.1.2-2 .2-2.5.3h-1.5l-.8-.1c-1.6 0-2.9-.6-4.3-1.6-.2.3-.8 1.2-1.7 1.9-1.8 1.4-3 1.8-4.8 2.1l-17.7 2.9c-.3 0-1.2.1-1.4.1-2.2 0-4.1-1.4-4.7-3.5l-12.7-47.6c-.6 5.1-.9 10.8-1.4 16.8zm71.6 14.9 12.6 11.2c1.4 1.3 3.3 1.8 5 1.5 1.2-.2 18.5-2.9 20.6-3.3 3.6-.7 6.3-3 6.4-6.5-.7.3-1.4.5-2.2.7-2.1.4-19.4 3.1-20.6 3.3-1.7.3-3.6-.3-5-1.5l-13.2-11.8-3.6 6.4zm-58.4-61.3c-5.5.6-11-3.7-12.4-8.9-.6-2.4-.3-4.7.7-6.5.3 2.1.6 4.3.6 4.4.1.2 5.7 6.5 6.3 6.9.6.3 7.7 2 9.5 2.1-1.2 1.1-2.8 1.8-4.7 2zm22.9 31.1-3.3-12.5c6.2 5.5 15.6 14 20.9 18.7-1.4 2.5-6.6 12-8.6 15.7-2.3 4.2.2 4.6-1.3 7.4l-1.2-4.6c2.4-4.4 5.9-10.7 7-12.7-3.5-3-8.7-7.7-13.5-12z"/><path class="st1" d="M294.5 87.7c-.4-1.3-1.1-2.6-2.8-4 0 0-8-6.9-15.2-13.2-4.3-3.7-8-7.1-10.7-9.5 1.2-2.2 2.7-5 4.3-7.9 3.3-6 6.3-11.5 6.7-12.3 1.1-2.6 1.3-4 1.3-5.7 0-1-.1-2-.5-3.1-.4-1.2-1-2.4-1.9-3.2-1.3-1.1-2.9-1.6-4.6-1.6-.3 0-.7 0-1 .1H269.8c-.4 0-.8 0-1.2.1-2.2.3-10.6 1.2-10.6 1.2-1.6.2-3 1.1-3.7 2.5l-7.4 13.6-14-12.2c-.7-.6-1.7-.9-2.6-.8 0 0-1 .1-1.3.1l-22.5 2.5c-1.6.2-3.1.8-4.2 1.6-.6-.6-1.5-1-2.8-.9 0 0-1 .1-1.3.1l-1.1.1c2.1-2.5 3.3-5.6 3.2-9.1 0-1.3-.2-2.7-.5-4.1-2.2-8.4-10.5-14.6-19.1-14.7-.5 0-.9 0-1.4.1-7.7.6-13 6.6-12.9 13.9 0 1.4.2 2.8.6 4.3 1.4 5.4 5.2 9.8 9.8 12.3-1 .5-1.9 1.1-2.7 1.9-.1.1-.2.2-.2.3-1.4-1-3.2-1.7-5.1-1.7-.3 0-.7 0-1.1.1l-9.2.9c-2.3.2-4.1 2-4.3 4.3l-2.3 24.7-13.1-20.8c-.9-1.5-2-2.9-3.7-3.8-2.3-1.4-5-1.6-9.6-1.1-2.6.3-6.2 1.4-7.8 2.4-1.2.7-2.3 1.8-3 3.2-.8 1.3-1.1 2.8-1.2 4.3l-1.7 21-15.4-25.3c-.6-1-1.8-1.6-3-1.5 0 0-.4 0-.8.1.5-1.1.7-2.3.7-3.4 0-.9-.1-1.7-.3-2.5l-2.9-12.1c-.4-1.5-1.5-2.6-3.5-2.4l-75.5 7.2c-1.8.2-3.7.9-5.2 2.4-1.5 1.4-2.4 3.6-2.3 5.7 0 .8.1 1.6.3 2.4L7 56c.6 2.3 2.8 3.8 5.2 3.6l24-2.6 19.9 75.8c.6 2.2 2.5 3.6 4.7 3.6.3 0 .5 0 .8-.1l19.1-3.2c2-.3 3.9-1.2 5.4-2.8 1.5-1.6 2.2-3.7 2.2-5.8 0-.9-.1-1.7-.3-2.5L76.3 77.6c3 4.9 6.5 10.6 10 16.2 9 14.6 17.2 27.8 17.2 27.8 1.4 2.3 3 4 5.2 4.8 1.9.8 3.8 1.1 5.8 1.1 1.7 0 3.3 0 5.2-.3 3.1-.6 5.4-1 7.8-2.8 2.5-1.8 4-4.1 4.1-8.8l1.2-18 10.7 18.2v.1c1.2 1.9 2.9 3.3 4.8 4.1 1.9.8 3.9 1.1 5.8 1.1 1.6 0 2.8-.1 4.4-.3 3.2-.6 5.3-1.1 7.8-2.6 1.2-.8 2.4-1.8 3.3-3.1.9-1.3 1.4-3.2 1.5-4.7 0 0 1.3-14.5 2.6-29.3.6-6.7 1.2-13.4 1.7-18.9l12.8 48.6c.6 2.2 2.5 3.6 4.7 3.6.3 0 .5 0 .8-.1l18.1-3c1.8-.3 3.7-1 5.4-2.6.3-.2.5-.5.7-.8 1.4 1 3.1 1.4 4.7 1.4h.1c.5 0 1.1 0 1.7-.1 2.4-.4 11.8-2 11.8-2 1.6-.3 2.8-1 3.8-2.6l8.7-15.8 13.1 11.7c1.4 1.3 3.3 1.8 5 1.5 1.2-.2 19.2-3.2 21.3-3.5 3.8-.6 6.6-4 6.6-7.6.2-.9.2-1.8-.2-3.2zM182.2 13.4c5.4-.5 10.9 3.4 12.3 8.8 1.4 5.4-1.9 10.2-7.2 10.7-5.5.6-11-3.7-12.4-8.9-1.4-5.3 1.9-10.2 7.3-10.6zM224 81.9c-2.3 4.2-4.7 8.5-6.2 11.3l-11-41.7c6.2 5.5 17.4 15.4 22.7 20-1.4 2.5-3.5 6.7-5.5 10.4z"/><path class="st0" d="M297.2 84.1c-.4-1.3-1.1-2.6-2.8-4 0 0-8-6.9-15.2-13.2-4.3-3.7-8-7.1-10.7-9.5 1.2-2.2 2.7-5 4.3-7.9 3.3-6 6.3-11.5 6.7-12.3 1.1-2.6 1.3-4 1.3-5.7 0-1-.1-2-.5-3.1-.4-1.2-1-2.4-1.9-3.2-1.3-1.1-2.9-1.6-4.6-1.6-.3 0-.7 0-1 .1H272.5c-.4 0-.8 0-1.2.1-2.2.3-10.6 1.2-10.6 1.2-1.6.2-3 1.1-3.7 2.5L249.5 41l-14-12.2c-.7-.6-1.7-.9-2.6-.8 0 0-1 .1-1.3.1l-22.5 2.5c-1.6.2-3.1.8-4.2 1.6-.6-.6-1.5-1-2.8-.9 0 0-1 .1-1.3.1l-1.1.1c2.1-2.5 3.3-5.6 3.2-9.1 0-1.3-.2-2.7-.5-4.1-2.1-8.3-10.4-14.5-19-14.5-.5 0-.9 0-1.4.1-7.7.6-13 6.6-12.9 13.9 0 1.4.2 2.8.6 4.3 1.4 5.4 5.2 9.8 9.8 12.3-1 .5-1.9 1.1-2.7 1.9-.1.1-.2.2-.2.3-1.4-1-3.2-1.7-5.1-1.7-.3 0-.7 0-1.1.1l-9.2.9c-2.3.2-4.1 2-4.3 4.3l-2.3 24.7-13.1-20.8c-.9-1.5-2-2.9-3.7-3.8-2.3-1.4-5-1.6-9.6-1.1-2.6.3-6.2 1.4-7.8 2.4-1.2.7-2.3 1.8-3 3.2-.8 1.3-1.1 2.8-1.2 4.3l-1.7 21-15.4-25.5c-.6-1-1.8-1.6-3-1.5 0 0-.4 0-.8.1.5-1.1.7-2.3.7-3.4 0-.9-.1-1.7-.3-2.5l-2.9-12.1c-.4-1.5-1.5-2.6-3.5-2.4L13.8 30c-1.8.2-3.7.9-5.2 2.4-1.5 1.4-2.4 3.6-2.3 5.7 0 .8.1 1.6.3 2.4l3.1 11.8c.6 2.3 2.8 3.8 5.2 3.6l23.9-2.5 19.9 75.8c.6 2.2 2.5 3.6 4.7 3.6.3 0 .5 0 .8-.1l19.1-3.2c2-.3 3.9-1.2 5.4-2.8 1.5-1.6 2.2-3.7 2.2-5.8 0-.9-.1-1.7-.3-2.5L79 73.9c3 4.9 6.5 10.6 10 16.2 9 14.6 17.2 27.8 17.2 27.8 1.4 2.3 3 4 5.2 4.8 1.9.8 3.8 1.1 5.8 1.1 1.7 0 3.3 0 5.2-.3 3.1-.6 5.4-1 7.8-2.8 2.5-1.8 4-4.1 4.1-8.8l1.2-18 10.7 18.2v.1c1.2 1.9 2.9 3.3 4.8 4.1 1.9.8 3.9 1.1 5.8 1.1 1.6 0 2.8-.1 4.4-.3 3.2-.6 5.3-1.1 7.8-2.6 1.2-.8 2.4-1.8 3.3-3.1.9-1.3 1.4-3.2 1.5-4.7 0 0 1.3-14.5 2.6-29.3.6-6.7 1.2-13.4 1.7-18.9l12.8 48.6c.6 2.2 2.5 3.6 4.7 3.6.3 0 .5 0 .8-.1l18.1-3c1.8-.3 3.7-1 5.4-2.6.3-.2.5-.5.7-.8 1.4 1 3.1 1.4 4.7 1.4h.1c.5 0 1.1 0 1.7-.1 2.4-.4 11.8-2 11.8-2 1.6-.3 2.8-1 3.8-2.6l8.7-15.8 13.1 11.7c1.4 1.3 3.3 1.8 5 1.5 1.2-.2 19.2-3.2 21.3-3.5 3.8-.6 6.6-4 6.6-7.6.2-.9.2-1.7-.2-3.1zM184.8 9.7c5.4-.5 10.9 3.4 12.3 8.8 1.4 5.4-1.9 10.2-7.2 10.7-5.5.6-11-3.7-12.4-8.9-1.3-5.3 1.9-10.1 7.3-10.6zm41.8 68.5c-2.3 4.2-4.7 8.5-6.2 11.3l-11-41.7c6.2 5.5 17.4 15.4 22.7 20-1.3 2.5-3.4 6.7-5.5 10.4z"/><ellipse class="st1" cx="189.5" cy="16.7" rx="11" ry="10.5"/><path d="M299.6 81c-.4-1.3-1.1-2.6-2.8-4 0 0-8-6.9-15.2-13.2-4.3-3.7-8-7.1-10.7-9.5 1.2-2.2 2.7-5 4.3-7.9 3.3-6 6.3-11.5 6.7-12.3 1.1-2.6 1.3-4 1.3-5.7 0-1-.1-2-.5-3.1-.4-1.2-1-2.4-1.9-3.2-1.3-1.1-2.9-1.6-4.6-1.6-.3 0-.7 0-1 .1H274.9c-.4 0-.8 0-1.2.1-2.2.3-10.6 1.2-10.6 1.2-1.6.2-3 1.1-3.7 2.5L252 37.9l-14-12.2c-.7-.6-1.7-.9-2.6-.8 0 0-1 .1-1.3.1l-22.5 2.5c-1.6.2-3.1.8-4.2 1.6-.6-.6-1.5-1-2.8-.9 0 0-1 .1-1.3.1l-1.1.1c2.1-2.5 3.3-5.6 3.2-9.1 0-1.3-.2-2.7-.5-4.1C202.7 7 194.5.8 185.8.7c-.5 0-.9 0-1.4.1-7.7.6-13 6.6-12.9 13.9 0 1.4.2 2.8.6 4.3 1.4 5.4 5.2 9.8 9.8 12.3-1 .5-1.9 1.1-2.7 1.9-.1.1-.2.2-.2.3-1.4-1-3.2-1.7-5.1-1.7-.3 0-.7 0-1.1.1l-9.2.9c-2.3.2-4.1 2-4.3 4.3L157 61.8 143.8 41c-.9-1.5-2-2.9-3.7-3.8-2.3-1.4-5-1.6-9.6-1.1-2.6.3-6.2 1.4-7.8 2.4-1.2.7-2.3 1.8-3 3.2-.8 1.3-1.1 2.8-1.2 4.3l-1.7 21-15.2-25.4c-.6-1-1.8-1.6-3-1.5 0 0-.4 0-.8.1.5-1.1.7-2.3.7-3.4 0-.9-.1-1.7-.3-2.5l-2.9-12.1c-.4-1.5-1.5-2.6-3.5-2.4L16.3 27c-1.8.2-3.7.9-5.2 2.4-1.5 1.4-2.4 3.6-2.3 5.7 0 .8.1 1.6.3 2.4l3.1 11.8c.6 2.3 2.8 3.8 5.2 3.6l23.9-2.5L61.2 126c.6 2.2 2.5 3.6 4.7 3.6.3 0 .5 0 .8-.1l19.1-3.2c2-.3 3.9-1.2 5.4-2.8 1.5-1.6 2.2-3.7 2.2-5.8 0-.9-.1-1.7-.3-2.5L81.4 70.8c3 4.9 6.5 10.6 10 16.2 9 14.6 17.2 27.8 17.2 27.8 1.4 2.3 3 4 5.2 4.8 1.9.8 3.8 1.1 5.8 1.1 1.7 0 3.3 0 5.2-.3 3.1-.6 5.4-1 7.8-2.8 2.5-1.8 4-4.1 4.1-8.8l1.2-18 10.7 18.2v.1c1.2 1.9 2.9 3.3 4.8 4.1 1.9.8 3.9 1.1 5.8 1.1 1.6 0 2.8-.1 4.4-.3 3.2-.6 5.3-1.1 7.8-2.6 1.2-.8 2.4-1.8 3.3-3.1.9-1.3 1.4-3.2 1.5-4.7 0 0 1.3-14.5 2.6-29.3.6-6.7 1.2-13.4 1.7-18.9l12.8 48.6c.6 2.2 2.5 3.6 4.7 3.6.3 0 .5 0 .8-.1l18.1-3c1.8-.3 3.7-1 5.4-2.6.3-.2.5-.5.7-.8 1.4 1 3.1 1.4 4.7 1.4h.1c.5 0 1.1 0 1.7-.1 2.4-.4 11.8-2 11.8-2 1.6-.3 2.8-1 3.8-2.6l8.7-15.8 13.1 11.7c1.4 1.3 3.3 1.8 5 1.5 1.2-.2 19.2-3.2 21.3-3.5 3.8-.6 6.6-4 6.6-7.6.2-.9.2-1.7-.2-3.1zM187.3 6.6c5.4-.5 10.9 3.4 12.3 8.8 1.4 5.4-1.9 10.2-7.2 10.7-5.5.6-11-3.7-12.4-8.9-1.4-5.2 1.9-10.1 7.3-10.6zm41.8 68.5c-2.3 4.2-4.7 8.5-6.2 11.3l-11-41.7c6.2 5.5 17.4 15.4 22.7 20-1.4 2.6-3.5 6.7-5.5 10.4z" style="fill-rule:evenodd;clip-rule:evenodd;fill:#fff"/><path class="st0" d="M171.6 37.2c-2.5.3-7.2.8-7.2.8s-3.7 37.4-3.8 39.9c-1.4-2.3-21-32.9-21-32.9-1.9-3.1-4.1-4-8.9-3.5-4.2.5-6.8 1.6-7.1 5.1l-2.9 37-23.4-38.1s-14 1.6-18.3 2c-3.4.4-4.9 3.7-2.9 6.9 1.7 2.7 36.7 59.6 36.7 59.6 1.6 2.6 5.2 3.2 10.9 2.2 5.4-.9 8.5-2.9 8.7-6.5l2-31.7 17.9 29.2c1.9 3 5.5 3.4 10.4 2.6 5.7-1 9-2.7 9.3-6.1 0 0 5.2-58 5.5-60.6.4-3.4-2.1-6.3-5.9-5.9zM293.6 82c-1.8-1.5-29.8-26-29.8-26s12.6-23.1 13.5-24.8c1.7-3 .1-5.6-3.4-5.2-2.3.3-10.6 1.2-10.6 1.2l-10.5 19.4-18.5-16.2-22.5 2.5c-2.5.3-3.7 3.3-1.5 5.3.8.7 30 26.5 30 26.5S226 90.8 225.2 92.3c-2 3.5 0 6.3 3.5 5.7 2.3-.4 11-1.9 11-1.9l11.8-21.5L270 91s20.4-3.4 22.4-3.7c2.5-.4 3.4-3.4 1.2-5.3zM216.2 100c3.1-.5 4.3-2.3 3.4-5.7l-15.9-60.6-18.5 2c-2.6.3-4.2 2.5-3.6 4.9l16.4 62.5 18.2-3.1z"/><path class="st0" d="M65.9 125.2 45.7 48.4c-.5-1.9-1.8-3-4.4-2.7l-24.5 2.5-3.1-11.7c-.6-2.5.8-4.1 2.9-4.3l74.1-7.1 2.6 10.7c.7 2.6-.6 4.4-3.5 4.7l-31.6 3.3c-.7.1-1.1.4-1 .9.1.5.5.7 1.6.8l6.9.7c3.3.3 4.6 2 5.1 3.9L88.3 117c.7 2.5-.7 4.6-3.3 5l-19.1 3.2z"/><path class="st3" d="M173.2 34.9c-2.5.3-7.2.8-7.2.8s-3.7 37.4-3.8 39.9c-1.4-2.3-21-32.9-21-32.9-1.9-3.1-4.1-4-8.9-3.5-4.2.5-6.8 1.6-7.1 5.1l-2.9 37-23.4-38.1s-14 1.6-18.3 2c-3.4.4-4.9 3.7-2.9 6.9 1.7 2.7 36.7 59.6 36.7 59.6 1.6 2.6 5.2 3.2 10.9 2.2 5.4-.9 8.5-2.9 8.7-6.5l2-31.7 17.9 29.2c1.9 3 5.5 3.4 10.4 2.6 5.7-1 9-2.7 9.3-6.1 0 0 5.2-58 5.5-60.6.3-3.4-2.2-6.3-5.9-5.9zM295.2 79.7c-1.8-1.5-29.8-26-29.8-26s12.6-23.1 13.5-24.8c1.7-3 .1-5.6-3.4-5.2-2.3.3-10.6 1.2-10.6 1.2l-10.5 19.4L235.9 28l-22.5 2.5c-2.5.3-3.7 3.3-1.5 5.3.8.7 30 26.5 30 26.5S227.6 88.5 226.8 90c-2 3.5 0 6.3 3.5 5.7 2.3-.4 11-1.9 11-1.9l11.8-21.5 18.4 16.4s20.4-3.4 22.4-3.7c2.6-.4 3.5-3.4 1.3-5.3zM217.7 97.8c3.1-.5 4.3-2.3 3.4-5.7l-15.9-60.6-18.5 2c-2.6.3-4.2 2.5-3.6 4.9l16.4 62.5 18.2-3.1z"/><path class="st3" d="M67.4 122.9 47.3 46.1c-.5-1.9-1.8-3-4.4-2.7L18.4 46l-3.1-11.7c-.6-2.5.8-4.1 2.9-4.3l74.1-7.1 2.6 10.7c.7 2.6-.6 4.4-3.5 4.7l-31.6 3.3c-.7.1-1.1.4-1 .9.1.5.5.7 1.6.8l6.9.7c3.3.3 4.6 2 5.1 3.9l17.5 66.7c.7 2.5-.7 4.6-3.3 5l-19.2 3.3zM187.3 6.6c5.4-.5 10.9 3.4 12.3 8.8 1.4 5.4-1.9 10.2-7.2 10.7-5.5.6-11-3.7-12.4-8.9-1.4-5.2 1.9-10.1 7.3-10.6zm-.9-2.6c-7 .6-11.1 6.7-9.3 13.7 1.8 6.9 8.9 12 15.8 11.3 6.9-.7 11.1-6.8 9.3-13.6-1.7-7-8.8-12-15.8-11.4zM288.6 15.2c.6 0 1.1 0 1.1-.8 0-.6-.5-.7-1-.7h-1v1.4h.9v.1zm0 3.6c-1.9 0-3.3-1.4-3.3-3.4 0-1.9 1.5-3.4 3.3-3.4 1.8 0 3.3 1.4 3.3 3.4-.1 2-1.5 3.4-3.3 3.4zm-.9-1h-.7v-4.7h1.8c1.1 0 1.6.4 1.6 1.3 0 .8-.5 1.2-1.2 1.3l1.3 2.1h-.8l-1.2-2h-.8v2zm.9 1.8c-2.3 0-4.1-1.8-4.1-4.2 0-2.4 1.8-4.2 4.1-4.2s4.1 1.8 4.1 4.2c-.1 2.5-1.9 4.2-4.1 4.2z"/><path class="st0" d="M192.6 20.8c-.3 0-.7-.2-.7-.5l-2.4-9.2v-.3c.1-.1.2-.2.3-.2l1.3-.1c.4 0 .7.2.8.5l2.4 9.1c0 .1 0 .2-.1.3-.1.1-.2.2-.3.2l-1.3.2zM188.7 21.2c-.3 0-.7-.2-.7-.5l-2.4-9.2v-.3c.1-.1.2-.2.3-.2l1.4-.1c.4 0 .7.2.8.5l2.4 9.1v.3c-.1.1-.2.2-.3.2l-1.5.2z"/></svg>