<svg version="1.1" id="Layer_1" xmlns="http://www.w3.org/2000/svg" x="0" y="0" viewBox="0 0 280 16.3" style="enable-background:new 0 0 280 16.3" xml:space="preserve"><style>.st0{fill:#fff}</style><path class="st0" d="M7 14.5v-2.1c0-1 0-2 .1-3s.1-2.1.2-3.5H7c-.1.8-.3 1.6-.4 2.4-.2.7-.3 1.5-.5 2.2-.2.8-.3 1.6-.4 2.2-.1.6-.2 1.2-.3 1.9H0V2.7h3.4v2.1c0 1 0 2-.1 3s-.1 2.1-.2 3.5h.3c.1-.6.2-1.2.3-1.9.2-.7.3-1.4.4-2 .2-1.1.4-1.9.5-2.6.2-.7.3-1.4.4-2.1h5.5v11.8H7zM13.4 13.5c-.9-.8-1.3-2-1.3-3.6V7.3c0-1.6.4-2.8 1.3-3.6.9-.8 2.2-1.2 3.9-1.2 1.2 0 2.2.2 2.9.5.8.4 1.3.8 1.7 1.5.4.6.5 1.3.5 2.1v.6c0 .2 0 .4-.1.5l-3.6.1c.1-.3.1-.6.1-.9 0-.3-.1-.6-.2-.7-.1-.2-.3-.3-.5-.4-.2-.1-.5-.1-.9-.1-.5 0-.9.1-1.2.4-.3.3-.4.7-.4 1.2V10c0 .4.1.8.2 1 .1.3.3.5.5.6.2.1.5.2.9.2.5 0 .9-.1 1.1-.4.3-.2.4-.6.4-1.1v-.7h3.6v.7c0 1.4-.4 2.6-1.3 3.3-.9.8-2.2 1.1-3.9 1.1-1.6 0-2.9-.4-3.7-1.2zM26.8 6h-3.2V2.7h9.9V6h-3.2v8.5h-3.5V6zM37 14.2c-.8-.4-1.4-.9-1.8-1.6-.4-.7-.6-1.6-.6-2.6V7.4c0-1 .2-1.9.6-2.6s1-1.3 1.8-1.6 1.7-.6 2.9-.6c1.1 0 2.1.2 2.9.6.8.4 1.4.9 1.8 1.6s.6 1.6.6 2.6V10c0 1-.2 1.9-.6 2.6-.4.7-1 1.3-1.8 1.6-.8.4-1.7.6-2.9.6-1.2-.1-2.1-.3-2.9-.6zm4.1-2.9c.3-.3.4-.7.4-1.4V7.4c0-.6-.1-1.1-.4-1.4-.3-.3-.7-.4-1.2-.4s-.9.1-1.2.4c-.3.3-.4.7-.4 1.4V10c0 .6.1 1.1.4 1.4.3.3.7.4 1.2.4.5-.1.9-.2 1.2-.5zM46.7 2.7h6c.8 0 1.5.1 2 .4s.9.7 1.2 1.2.4 1.2.4 2.1v1.3c0 .8-.1 1.5-.4 2.1-.2.5-.6.9-1.1 1.2-.5.3-1.1.4-1.9.4h-.1c-.5 0-.9-.1-1.3-.2-.3-.1-.6-.2-.8-.4-.2-.2-.4-.4-.5-.7l-.3.1c.1.4.1.6.1.9v3.5h-3.5V2.7zm3.7 5.4c.1.2.2.3.4.3.2.1.4.1.8.1s.7 0 .8-.1c.2-.1.3-.2.4-.4.1-.2.1-.5.1-.8v-.1c0-.3 0-.6-.1-.8-.1-.2-.2-.3-.4-.4-.2-.1-.5-.1-.9-.1h-1.2v1.8c0 .1 0 .3.1.5zM64.8 14.5v-2.1c0-1 0-2 .1-3s.1-2.1.2-3.5h-.3c-.1.8-.3 1.5-.4 2.3-.2.8-.3 1.5-.5 2.2-.2.8-.3 1.6-.4 2.2-.1.6-.2 1.2-.3 1.9h-5.3V2.7h3.4v2.1c0 1 0 2-.1 3s-.1 2.1-.2 3.5h.3c.1-.6.2-1.2.3-1.9.1-.7.3-1.4.4-2 .2-1.1.4-1.9.5-2.6l.3-2.1h5.5v11.8h-3.5zM76.1 10.5h-1l-1.5 4h-4l2.3-5v-.3c-.4-.1-.7-.3-1-.5-.3-.3-.5-.6-.7-1-.2-.4-.3-.9-.3-1.5v-.1c0-.7.1-1.3.3-1.8.2-.5.6-.9 1-1.1s1-.4 1.7-.4h6.6v11.8H76v-4.1zm-2.6-2.9c.2.2.4.3.7.3h1.9V5.6h-1.9c-.3 0-.6.1-.7.3-.2.2-.2.5-.2.9v.1c-.1.3 0 .6.2.7zM92.2 5.8H90l-.1 5c0 1-.1 1.7-.4 2.3s-.6 1-1.2 1.2-1.2.4-2.1.4c-.5 0-1 0-1.4-.1v-3h.5c.2 0 .4 0 .6-.1.1-.1.3-.2.3-.3.1-.2.1-.4.1-.7l.1-7.7h9.3v11.8h-3.5V5.8zM104.4 14.2c-.7-.4-1.3-.9-1.6-1.6-.4-.7-.6-1.6-.6-2.6h-1.1v4.5h-3.5V2.7h3.5V7h1.1c0-.9.3-1.7.6-2.4s.9-1.2 1.6-1.5c.7-.3 1.6-.5 2.6-.5 1.1 0 2 .2 2.8.6s1.3.9 1.7 1.6c.4.7.6 1.6.6 2.6V10c0 1-.2 1.9-.6 2.6-.4.7-.9 1.3-1.7 1.6-.7.4-1.7.6-2.8.6-.9-.1-1.8-.3-2.6-.6zm3.7-2.9c.2-.3.3-.7.3-1.3V7.4c0-.6-.1-1.1-.3-1.4-.2-.3-.6-.4-1-.4-.5 0-.8.1-1 .4-.2.3-.3.7-.3 1.4V10c0 .6.1 1.1.3 1.3.2.3.6.4 1 .4.5 0 .8-.1 1-.4zM113.7 2.7h8.3v3.2h-4.8v1.5h2.9c.7 0 1.3.1 1.8.3.5.2.8.6 1.1 1.1.3.5.4 1.2.4 2v.3c0 .8-.1 1.5-.4 2-.2.5-.6.9-1.1 1.1-.5.2-1.1.3-1.8.3h-6.5V2.7zm5.8 8.9c.1-.1.3-.2.3-.3.1-.1.1-.3.1-.5v-.1c0-.3-.1-.6-.2-.7-.1-.1-.4-.2-.7-.2h-1.7v1.9h1.6c.2 0 .4-.1.6-.1zM131.9 14.5v-2.1c0-1 0-2 .1-3s.1-2.1.2-3.5h-.3c-.1.8-.3 1.5-.4 2.3-.2.8-.3 1.5-.5 2.2-.2.8-.3 1.6-.4 2.2-.1.6-.2 1.2-.3 1.9H125V2.7h3.4v2.1c0 1 0 2-.1 3s-.1 2.1-.2 3.5h.3c.1-.6.2-1.2.3-1.9.1-.7.3-1.4.4-2 .2-1.1.4-1.9.5-2.6l.3-2.1h5.5v11.8h-3.5zM137.2 2.7h5.8c.1.8.2 1.5.2 2.3.1.7.2 1.6.3 2.7.2 1.2.3 2.3.4 3.3h.3c.1-1.1.3-2.2.4-3.2.1-.8.2-1.7.3-2.5.1-.9.2-1.7.3-2.5h5.8v11.8h-3.5v-2.1c0-2.1.1-4.2.2-6.5h-.3l-.3 2.1c-.1.7-.2 1.4-.4 2.1-.1.7-.2 1.5-.4 2.3-.1.8-.2 1.5-.3 2.1h-4c-.1-.6-.2-1.3-.3-2-.1-.8-.2-1.5-.4-2.2-.2-1.4-.5-2.9-.7-4.3h-.3c.1 2.3.2 4.4.2 6.5v2.1h-3.4v-12zM153 2.7h3.5v4h2.3c.9 0 1.6.1 2.1.4s1 .6 1.3 1.2c.3.5.4 1.3.4 2.2v.4c0 .9-.1 1.6-.4 2.1-.3.5-.7.9-1.3 1.2-.6.2-1.3.4-2.1.4H153V2.7zm5.7 8.7c.2-.1.3-.2.3-.3.1-.1.1-.3.1-.5v-.4c0-.3-.1-.6-.2-.7-.2-.1-.4-.2-.8-.2h-1.6v2.2h1.5c.4 0 .6 0 .7-.1zm5.2-8.7h3.5v11.8h-3.5V2.7zM171.4 8.8l-2.6-6h3.8l1.6 4.3h.3l.8-4.3h3.6l-2.6 5.5 2.7 6.3h-3.8l-1.7-4.5h-.3l-.9 4.5h-3.7l2.8-5.8zM185.4 14.5c-.5-.2-.9-.4-1.2-.7s-.4-.7-.4-1.1c0-.2 0-.4.1-.6l3.3-.1v.3c0 .2 0 .3.1.4.1.1.2.1.4.1.1 0 .2 0 .3-.1.1 0 .1-.1.2-.2s.1-.2.1-.4l.1-.6h-.2c-.7 0-1.2-.1-1.6-.2-.4-.1-.7-.4-.9-.7-.2-.3-.4-.8-.6-1.4l-1.3-6.5h3.8c.1.7.3 1.8.6 3.2.2 1 .4 2.1.6 3.2h.3c.1-.7.3-1.8.6-3.2.2-1 .4-2.1.6-3.2h3.7l-2.1 9c-.2.7-.5 1.3-.8 1.7-.3.4-.8.8-1.4 1-.6.2-1.4.3-2.3.3-.8 0-1.5-.1-2-.2zM195.2 2.7h7.8V6h-4.3v8.5h-3.5V2.7zM206.6 14.2c-.8-.4-1.4-.9-1.8-1.6-.4-.7-.6-1.6-.6-2.6V7.4c0-1 .2-1.9.6-2.6s1-1.3 1.8-1.6c.8-.4 1.7-.6 2.9-.6 1.1 0 2.1.2 2.9.6.8.4 1.4.9 1.8 1.6.4.7.6 1.6.6 2.6V10c0 1-.2 1.9-.6 2.6-.4.7-1 1.3-1.8 1.6-.8.4-1.7.6-2.9.6s-2.2-.3-2.9-.6zm4.1-2.9c.3-.3.4-.7.4-1.4V7.4c0-.6-.1-1.1-.4-1.4-.3-.3-.7-.4-1.2-.4s-.9.1-1.2.4c-.3.3-.4.7-.4 1.4V10c0 .6.1 1.1.4 1.4.3.3.7.4 1.2.4.5-.1.9-.2 1.2-.5zM229.8 14.5h-13.5V2.7h3.5v8.8h2.7V2.7h3.5v8.8h2.7V2.7h3.5v8.8h1.2v4.8h-3.7v-1.8zM235 2.7h8.5v3h-5v1.6h4.7v2.3h-4.7v1.8h5v3H235V2.7zM245.2 2.7h3.5v3.7c0 .3 0 .6-.1.9 0 .2-.1.5-.2.8l.3.1c.3-.4.6-.8 1-1 .4-.2.9-.3 1.4-.3.3 0 .5 0 .7.1V2.7h3.5v11.8h-3.5v-3.4c0-.3-.1-.6-.2-.8s-.3-.4-.5-.5c-.2-.1-.5-.2-.9-.2s-.7.1-.9.2c-.2.1-.4.3-.5.5s-.2.5-.2.8v3.4h-3.5V2.7zM264.2 14.5v-2.1c0-1 0-2 .1-3s.1-2.1.2-3.5h-.3c-.1.8-.3 1.5-.4 2.3-.2.8-.3 1.5-.5 2.2-.2.8-.3 1.6-.4 2.2-.1.6-.2 1.2-.3 1.9h-5.3V2.7h3.4v2.1c0 1 0 2-.1 3s-.1 2.1-.2 3.5h.3c.1-.6.2-1.2.3-1.9.1-.7.3-1.4.4-2 .2-1.1.4-1.9.5-2.6l.3-2.1h5.5v11.8h-3.5zM276.6 14.5v-2.1c0-1 0-2 .1-3s.1-2.1.2-3.5h-.3c-.1.8-.3 1.5-.4 2.3-.2.8-.3 1.5-.5 2.2-.2.8-.3 1.6-.4 2.2-.1.6-.2 1.2-.3 1.9h-5.3V2.7h3.4v2.1c0 1 0 2-.1 3s-.1 2.1-.2 3.5h.3c.1-.6.2-1.2.3-1.9.1-.7.3-1.4.4-2 .2-1.1.4-1.9.5-2.6l.3-2.1h5.5v11.8h-3.5zm-3.9-12.6c-.5-.1-.8-.4-1-.7-.2-.3-.3-.7-.3-1.2h2.8c0 .3.1.5.2.6.1.1.3.2.5.2s.4-.1.5-.2c.1-.1.2-.3.2-.6h2.8c0 .5-.1.9-.3 1.2-.2.3-.5.5-1 .7-.5.1-1.2.2-2.1.2-1.1 0-1.8-.1-2.3-.2z"/></svg>